# xmcd
#
# Track frame offsets:
# 150
# 16101
# 30894
# 46362
# 64407
# 81663
# 103245
# 119349
# 132261
# 152682
# 168648
# 189876
# 203232
# 213003
#
# Disc length: 3064 seconds
#
#
# Revision: 4
# Processed by: cddbd v1.5.1PL0 Copyright (c) Steve Scherf et al.
# Submitted via: FreeRIP 2.90 
#
DISCID=bb0bf60e
DTITLE=O Boticario - Colecao Som Do Brasil - Sertanejo
DYEAR=2001
DGENRE=Country
TTITLE0=Daniel-Meu Reino Encantado
TTITLE1=Leandro e Leonardo-Mexe Mexe
TTITLE2=Rick e Renner-Ela Eh Demais
TTITLE3=Daniel-Vai Dar Samba (Ao Vivo)
TTITLE4=Leandro e Leonardo-Doce Misterio
TTITLE5=Cezar e Paulinho-Nunca Mais
TTITLE6=Rick e Renner-Muleca
TTITLE7=Teodoro e Sampaio-Feitico Do Amor
TTITLE8=Daniel-Pra Falar A Verdade
TTITLE9=Bruno e Marrone-Acorrentado Em Voce
TTITLE10=Daniel-Adoro Amar Voce
TTITLE11=Leandro e Leonardo-Cade Voce
TTITLE12=Teodoro e Sampaio-Quem Tem... Tem Medo
TTITLE13=Sergio Reis-Tocando Em Frente
EXTD=
EXTT0=
EXTT1=
EXTT2=
EXTT3=
EXTT4=
EXTT5=
EXTT6=
EXTT7=
EXTT8=
EXTT9=
EXTT10=
EXTT11=
EXTT12=
EXTT13=
PLAYORDER=
